<mxfile host="app.diagrams.net" modified="2023-11-30T19:54:31.670Z" agent="Mozilla/5.0 (Macintosh; Intel Mac OS X 10_15_7) AppleWebKit/605.1.15 (KHTML, like Gecko) Version/17.0 Safari/605.1.15" etag="zwjXybOoWCPnMlmvaHmG" version="22.1.5" type="device">
  <diagram name="Page-1" id="0Jzi237d1tHOaM15pnXB">
    <mxGraphModel dx="1060" dy="614" grid="0" gridSize="10" guides="1" tooltips="1" connect="1" arrows="1" fold="1" page="1" pageScale="1" pageWidth="827" pageHeight="1169" math="0" shadow="0">
      <root>
        <mxCell id="0" />
        <mxCell id="1" parent="0" />
        <mxCell id="PeFGSEZr9rElJGkh2VPf-1" value="BUYBAZAAR - HLD" style="rounded=1;whiteSpace=wrap;html=1;fillColor=#d5e8d4;strokeColor=#82b366;fontStyle=1" vertex="1" parent="1">
          <mxGeometry x="50" y="30" width="120" height="30" as="geometry" />
        </mxCell>
        <mxCell id="PeFGSEZr9rElJGkh2VPf-4" style="edgeStyle=orthogonalEdgeStyle;rounded=1;orthogonalLoop=1;jettySize=auto;html=1;entryX=0;entryY=0.5;entryDx=0;entryDy=0;" edge="1" parent="1" source="PeFGSEZr9rElJGkh2VPf-2" target="PeFGSEZr9rElJGkh2VPf-3">
          <mxGeometry relative="1" as="geometry" />
        </mxCell>
        <mxCell id="PeFGSEZr9rElJGkh2VPf-2" value="Landing Page" style="rounded=1;whiteSpace=wrap;html=1;fillColor=#ffe6cc;strokeColor=#d79b00;" vertex="1" parent="1">
          <mxGeometry x="50" y="244" width="120" height="60" as="geometry" />
        </mxCell>
        <mxCell id="PeFGSEZr9rElJGkh2VPf-3" value="" style="rounded=1;whiteSpace=wrap;html=1;fillColor=#e1d5e7;strokeColor=#9673a6;" vertex="1" parent="1">
          <mxGeometry x="240" y="214" width="120" height="140" as="geometry" />
        </mxCell>
        <mxCell id="PeFGSEZr9rElJGkh2VPf-21" style="edgeStyle=orthogonalEdgeStyle;rounded=1;orthogonalLoop=1;jettySize=auto;html=1;entryX=0;entryY=0.5;entryDx=0;entryDy=0;" edge="1" parent="1" source="PeFGSEZr9rElJGkh2VPf-5" target="PeFGSEZr9rElJGkh2VPf-15">
          <mxGeometry relative="1" as="geometry" />
        </mxCell>
        <mxCell id="PeFGSEZr9rElJGkh2VPf-5" value="Navbar" style="rounded=1;whiteSpace=wrap;html=1;" vertex="1" parent="1">
          <mxGeometry x="250" y="224" width="120" height="30" as="geometry" />
        </mxCell>
        <mxCell id="PeFGSEZr9rElJGkh2VPf-6" value="Body" style="rounded=1;whiteSpace=wrap;html=1;" vertex="1" parent="1">
          <mxGeometry x="250" y="269" width="120" height="30" as="geometry" />
        </mxCell>
        <mxCell id="PeFGSEZr9rElJGkh2VPf-7" value="Footer" style="rounded=1;whiteSpace=wrap;html=1;" vertex="1" parent="1">
          <mxGeometry x="250" y="314" width="120" height="30" as="geometry" />
        </mxCell>
        <mxCell id="PeFGSEZr9rElJGkh2VPf-13" value="navbar" style="swimlane;fontStyle=0;childLayout=stackLayout;horizontal=1;startSize=30;horizontalStack=0;resizeParent=1;resizeParentMax=0;resizeLast=0;collapsible=1;marginBottom=0;whiteSpace=wrap;html=1;rounded=1;fillColor=#d5e8d4;strokeColor=#82b366;" vertex="1" parent="1">
          <mxGeometry x="440" y="194" width="140" height="210" as="geometry" />
        </mxCell>
        <mxCell id="PeFGSEZr9rElJGkh2VPf-14" value="Logo" style="text;strokeColor=none;fillColor=none;align=left;verticalAlign=middle;spacingLeft=4;spacingRight=4;overflow=hidden;points=[[0,0.5],[1,0.5]];portConstraint=eastwest;rotatable=0;whiteSpace=wrap;html=1;rounded=1;" vertex="1" parent="PeFGSEZr9rElJGkh2VPf-13">
          <mxGeometry y="30" width="140" height="30" as="geometry" />
        </mxCell>
        <mxCell id="PeFGSEZr9rElJGkh2VPf-15" value="Headers" style="text;strokeColor=none;fillColor=none;align=left;verticalAlign=middle;spacingLeft=4;spacingRight=4;overflow=hidden;points=[[0,0.5],[1,0.5]];portConstraint=eastwest;rotatable=0;whiteSpace=wrap;html=1;rounded=1;" vertex="1" parent="PeFGSEZr9rElJGkh2VPf-13">
          <mxGeometry y="60" width="140" height="30" as="geometry" />
        </mxCell>
        <mxCell id="PeFGSEZr9rElJGkh2VPf-16" value="Search_Bar" style="text;strokeColor=none;fillColor=none;align=left;verticalAlign=middle;spacingLeft=4;spacingRight=4;overflow=hidden;points=[[0,0.5],[1,0.5]];portConstraint=eastwest;rotatable=0;whiteSpace=wrap;html=1;rounded=1;" vertex="1" parent="PeFGSEZr9rElJGkh2VPf-13">
          <mxGeometry y="90" width="140" height="30" as="geometry" />
        </mxCell>
        <mxCell id="PeFGSEZr9rElJGkh2VPf-18" value="Profile" style="text;strokeColor=none;fillColor=none;align=left;verticalAlign=middle;spacingLeft=4;spacingRight=4;overflow=hidden;points=[[0,0.5],[1,0.5]];portConstraint=eastwest;rotatable=0;whiteSpace=wrap;html=1;rounded=1;" vertex="1" parent="PeFGSEZr9rElJGkh2VPf-13">
          <mxGeometry y="120" width="140" height="30" as="geometry" />
        </mxCell>
        <mxCell id="PeFGSEZr9rElJGkh2VPf-19" value="Wishlist" style="text;strokeColor=none;fillColor=none;align=left;verticalAlign=middle;spacingLeft=4;spacingRight=4;overflow=hidden;points=[[0,0.5],[1,0.5]];portConstraint=eastwest;rotatable=0;whiteSpace=wrap;html=1;rounded=1;" vertex="1" parent="PeFGSEZr9rElJGkh2VPf-13">
          <mxGeometry y="150" width="140" height="30" as="geometry" />
        </mxCell>
        <mxCell id="PeFGSEZr9rElJGkh2VPf-20" value="cart" style="text;strokeColor=none;fillColor=none;align=left;verticalAlign=middle;spacingLeft=4;spacingRight=4;overflow=hidden;points=[[0,0.5],[1,0.5]];portConstraint=eastwest;rotatable=0;whiteSpace=wrap;html=1;rounded=1;" vertex="1" parent="PeFGSEZr9rElJGkh2VPf-13">
          <mxGeometry y="180" width="140" height="30" as="geometry" />
        </mxCell>
        <mxCell id="PeFGSEZr9rElJGkh2VPf-23" value="login/signup&lt;br&gt;my orders&lt;br&gt;manage account &lt;br&gt;if login then show logout" style="rounded=1;whiteSpace=wrap;html=1;fillColor=#a0522d;strokeColor=#6D1F00;fontColor=#ffffff;" vertex="1" parent="1">
          <mxGeometry x="713" y="184" width="190" height="113" as="geometry" />
        </mxCell>
        <mxCell id="PeFGSEZr9rElJGkh2VPf-24" style="edgeStyle=orthogonalEdgeStyle;rounded=1;orthogonalLoop=1;jettySize=auto;html=1;entryX=0;entryY=0.5;entryDx=0;entryDy=0;" edge="1" parent="1" source="PeFGSEZr9rElJGkh2VPf-18" target="PeFGSEZr9rElJGkh2VPf-23">
          <mxGeometry relative="1" as="geometry" />
        </mxCell>
        <mxCell id="PeFGSEZr9rElJGkh2VPf-25" value="carousel&lt;br&gt;Recommended&amp;nbsp;" style="rounded=0;whiteSpace=wrap;html=1;" vertex="1" parent="1">
          <mxGeometry x="250" y="444" width="120" height="60" as="geometry" />
        </mxCell>
        <mxCell id="PeFGSEZr9rElJGkh2VPf-26" value="&lt;h1&gt;BuyBazaar - HLD&lt;/h1&gt;&lt;p&gt;BuyBazaar high level design drawn below&lt;/p&gt;" style="text;html=1;strokeColor=none;fillColor=none;spacing=5;spacingTop=-20;whiteSpace=wrap;overflow=hidden;rounded=0;" vertex="1" parent="1">
          <mxGeometry x="50" y="81" width="221" height="120" as="geometry" />
        </mxCell>
      </root>
    </mxGraphModel>
  </diagram>
</mxfile>
